<mxfile host="app.diagrams.net" modified="2022-10-27T00:47:59.341Z" agent="5.0 (Windows NT 10.0; Win64; x64) AppleWebKit/537.36 (KHTML, like Gecko) Chrome/106.0.0.0 Safari/537.36" etag="LS13YHlW6v5331cuVm2V" version="20.4.0" type="github">
  <diagram id="cX6aulq6vvYHyyx_7B5r" name="Page-1">
    <mxGraphModel dx="782" dy="468" grid="0" gridSize="10" guides="1" tooltips="1" connect="1" arrows="1" fold="1" page="1" pageScale="1" pageWidth="850" pageHeight="1100" math="0" shadow="0">
      <root>
        <mxCell id="0" />
        <mxCell id="1" parent="0" />
        <mxCell id="83XovwtlkcWAeHWIpk5r-1" value="" style="rounded=0;whiteSpace=wrap;html=1;fontColor=#FFE6CC;labelBorderColor=#97D077;strokeColor=#66FF66;" parent="1" vertex="1">
          <mxGeometry x="80" y="120" width="160" height="360" as="geometry" />
        </mxCell>
        <mxCell id="83XovwtlkcWAeHWIpk5r-2" value="Sign-in" style="rounded=1;whiteSpace=wrap;html=1;" parent="1" vertex="1">
          <mxGeometry x="100" y="200" width="120" height="40" as="geometry" />
        </mxCell>
        <mxCell id="83XovwtlkcWAeHWIpk5r-4" value="" style="rounded=0;whiteSpace=wrap;html=1;strokeColor=#0000CC;" parent="1" vertex="1">
          <mxGeometry x="280" y="120" width="360" height="360" as="geometry" />
        </mxCell>
        <mxCell id="83XovwtlkcWAeHWIpk5r-5" value="&lt;span style=&quot;font-size:12.0pt;font-family:&lt;br/&gt;&amp;quot;Arial&amp;quot;,sans-serif;mso-fareast-font-family:&amp;quot;Times New Roman&amp;quot;;mso-bidi-font-family:&lt;br/&gt;&amp;quot;Times New Roman&amp;quot;;mso-ansi-language:EN-GB;mso-fareast-language:EN-US;&lt;br/&gt;mso-bidi-language:AR-SA&quot; lang=&quot;EN-GB&quot;&gt;Manage TOCs&amp;nbsp;&lt;/span&gt;" style="rounded=1;whiteSpace=wrap;html=1;" parent="1" vertex="1">
          <mxGeometry x="300" y="130" width="140" height="40" as="geometry" />
        </mxCell>
        <mxCell id="83XovwtlkcWAeHWIpk5r-6" value="&lt;span style=&quot;&quot; lang=&quot;EN-GB&quot;&gt;User Announcement&lt;/span&gt;" style="rounded=1;whiteSpace=wrap;html=1;" parent="1" vertex="1">
          <mxGeometry x="480" y="130" width="140" height="40" as="geometry" />
        </mxCell>
        <mxCell id="83XovwtlkcWAeHWIpk5r-8" value="&lt;span style=&quot;font-size:12.0pt;font-family:&lt;br/&gt;&amp;quot;Arial&amp;quot;,sans-serif;mso-fareast-font-family:&amp;quot;Times New Roman&amp;quot;;mso-bidi-font-family:&lt;br/&gt;&amp;quot;Times New Roman&amp;quot;;mso-ansi-language:EN-GB;mso-fareast-language:EN-US;&lt;br/&gt;mso-bidi-language:AR-SA;mso-no-proof:yes&quot; lang=&quot;EN-GB&quot;&gt;Manage language&amp;nbsp;&lt;/span&gt;" style="rounded=1;whiteSpace=wrap;html=1;" parent="1" vertex="1">
          <mxGeometry x="480" y="180" width="140" height="40" as="geometry" />
        </mxCell>
        <mxCell id="83XovwtlkcWAeHWIpk5r-9" value="Manage Voices" style="rounded=1;whiteSpace=wrap;html=1;" parent="1" vertex="1">
          <mxGeometry x="300" y="180" width="140" height="40" as="geometry" />
        </mxCell>
        <mxCell id="83XovwtlkcWAeHWIpk5r-10" value="&lt;span style=&quot;&quot; lang=&quot;EN-GB&quot;&gt;New Announcement&lt;/span&gt;" style="rounded=1;whiteSpace=wrap;html=1;" parent="1" vertex="1">
          <mxGeometry x="300" y="230" width="140" height="40" as="geometry" />
        </mxCell>
        <mxCell id="83XovwtlkcWAeHWIpk5r-11" value="&lt;span style=&quot;&quot; lang=&quot;EN-GB&quot;&gt;New Train&amp;nbsp;&lt;/span&gt;" style="rounded=1;whiteSpace=wrap;html=1;" parent="1" vertex="1">
          <mxGeometry x="480" y="230" width="140" height="40" as="geometry" />
        </mxCell>
        <mxCell id="83XovwtlkcWAeHWIpk5r-13" value="&lt;span&gt;&lt;span style=&quot;font-weight: normal;&quot; lang=&quot;EN-GB&quot;&gt;Find Announcement&lt;/span&gt;&lt;/span&gt;" style="rounded=1;whiteSpace=wrap;html=1;fontStyle=1" parent="1" vertex="1">
          <mxGeometry x="300" y="280" width="140" height="40" as="geometry" />
        </mxCell>
        <mxCell id="83XovwtlkcWAeHWIpk5r-14" value="&lt;span style=&quot;&quot; lang=&quot;EN-GB&quot;&gt;Announcement Report&lt;/span&gt;" style="rounded=1;whiteSpace=wrap;html=1;" parent="1" vertex="1">
          <mxGeometry x="480" y="280" width="140" height="40" as="geometry" />
        </mxCell>
        <mxCell id="83XovwtlkcWAeHWIpk5r-15" value="&lt;span&gt;&lt;span style=&quot;font-weight: normal;&quot; lang=&quot;EN-GB&quot;&gt;Manage TOC data&lt;/span&gt;&lt;/span&gt;" style="rounded=1;whiteSpace=wrap;html=1;fontStyle=1" parent="1" vertex="1">
          <mxGeometry x="300" y="330" width="140" height="40" as="geometry" />
        </mxCell>
        <mxCell id="83XovwtlkcWAeHWIpk5r-16" value="&lt;span style=&quot;font-size: 11px;&quot;&gt;Manage Standard Announcement&lt;/span&gt;" style="rounded=1;whiteSpace=wrap;html=1;" parent="1" vertex="1">
          <mxGeometry x="480" y="330" width="140" height="40" as="geometry" />
        </mxCell>
        <mxCell id="83XovwtlkcWAeHWIpk5r-17" value="&lt;span&gt;&lt;span style=&quot;font-weight: normal;&quot; lang=&quot;EN-GB&quot;&gt;Manage Dictionary&lt;/span&gt;&lt;/span&gt;" style="rounded=1;whiteSpace=wrap;html=1;fontStyle=1" parent="1" vertex="1">
          <mxGeometry x="300" y="380" width="140" height="40" as="geometry" />
        </mxCell>
        <mxCell id="83XovwtlkcWAeHWIpk5r-21" value="&amp;nbsp;Management&amp;nbsp;" style="text;html=1;strokeColor=none;fillColor=none;align=center;verticalAlign=middle;whiteSpace=wrap;rounded=0;" parent="1" vertex="1">
          <mxGeometry x="330" y="450" width="240" height="30" as="geometry" />
        </mxCell>
        <mxCell id="83XovwtlkcWAeHWIpk5r-22" value="" style="rounded=0;whiteSpace=wrap;html=1;fontSize=11;strokeColor=#FFE599;" parent="1" vertex="1">
          <mxGeometry x="680" y="120" width="160" height="93" as="geometry" />
        </mxCell>
        <mxCell id="83XovwtlkcWAeHWIpk5r-23" value="" style="rounded=0;whiteSpace=wrap;html=1;fontSize=11;strokeColor=#994C00;labelBorderColor=none;" parent="1" vertex="1">
          <mxGeometry x="680" y="340" width="160" height="140" as="geometry" />
        </mxCell>
        <mxCell id="83XovwtlkcWAeHWIpk5r-24" value="&lt;span style=&quot;&quot; lang=&quot;EN-GB&quot;&gt;External Service Connector&lt;/span&gt;" style="rounded=1;whiteSpace=wrap;html=1;" parent="1" vertex="1">
          <mxGeometry x="690" y="130" width="140" height="40" as="geometry" />
        </mxCell>
        <mxCell id="83XovwtlkcWAeHWIpk5r-28" value="Information Protection" style="text;html=1;strokeColor=none;fillColor=none;align=center;verticalAlign=middle;whiteSpace=wrap;rounded=0;" parent="1" vertex="1">
          <mxGeometry x="696" y="447" width="128" height="30" as="geometry" />
        </mxCell>
        <mxCell id="83XovwtlkcWAeHWIpk5r-30" value="" style="swimlane;startSize=0;labelBorderColor=#0000CC;fontSize=11;fontColor=#1A1A1A;strokeColor=#FFCCCC;" parent="1" vertex="1">
          <mxGeometry x="60" y="100" width="800" height="464" as="geometry" />
        </mxCell>
        <mxCell id="83XovwtlkcWAeHWIpk5r-31" value="&lt;font style=&quot;font-size: 15px;&quot;&gt;&lt;b&gt;OTPA Web App on React JS Platform&lt;/b&gt;&lt;/font&gt;" style="text;html=1;strokeColor=none;fillColor=none;align=center;verticalAlign=middle;whiteSpace=wrap;rounded=0;" parent="83XovwtlkcWAeHWIpk5r-30" vertex="1">
          <mxGeometry x="118" y="420" width="478" height="30" as="geometry" />
        </mxCell>
        <mxCell id="83XovwtlkcWAeHWIpk5r-25" value="Service Connector" style="text;html=1;strokeColor=none;fillColor=none;align=center;verticalAlign=middle;whiteSpace=wrap;rounded=0;" parent="83XovwtlkcWAeHWIpk5r-30" vertex="1">
          <mxGeometry x="650" y="84" width="106" height="30" as="geometry" />
        </mxCell>
        <mxCell id="83XovwtlkcWAeHWIpk5r-32" value="" style="rounded=0;whiteSpace=wrap;html=1;fontSize=11;strokeColor=#660033;" parent="83XovwtlkcWAeHWIpk5r-30" vertex="1">
          <mxGeometry x="621" y="129" width="160" height="94" as="geometry" />
        </mxCell>
        <mxCell id="83XovwtlkcWAeHWIpk5r-33" value="&lt;span style=&quot;&quot; lang=&quot;EN-GB&quot;&gt;External Service Connector&lt;/span&gt;" style="rounded=1;whiteSpace=wrap;html=1;" parent="83XovwtlkcWAeHWIpk5r-30" vertex="1">
          <mxGeometry x="631" y="141" width="140" height="40" as="geometry" />
        </mxCell>
        <mxCell id="83XovwtlkcWAeHWIpk5r-34" value="Backend API Connector" style="text;html=1;strokeColor=none;fillColor=none;align=center;verticalAlign=middle;whiteSpace=wrap;rounded=0;" parent="83XovwtlkcWAeHWIpk5r-30" vertex="1">
          <mxGeometry x="637" y="192" width="134" height="30" as="geometry" />
        </mxCell>
        <mxCell id="83XovwtlkcWAeHWIpk5r-26" value="Access Token" style="rounded=1;whiteSpace=wrap;html=1;" parent="83XovwtlkcWAeHWIpk5r-30" vertex="1">
          <mxGeometry x="631" y="303" width="140" height="37" as="geometry" />
        </mxCell>
        <mxCell id="83XovwtlkcWAeHWIpk5r-37" value="SSL Handler" style="rounded=1;whiteSpace=wrap;html=1;" parent="83XovwtlkcWAeHWIpk5r-30" vertex="1">
          <mxGeometry x="631" y="249" width="140" height="37" as="geometry" />
        </mxCell>
        <mxCell id="83XovwtlkcWAeHWIpk5r-3" value="OTPA UI integrate with AWS Cognito, AAD for authen/author" style="text;html=1;strokeColor=none;fillColor=none;align=center;verticalAlign=middle;whiteSpace=wrap;rounded=0;" parent="83XovwtlkcWAeHWIpk5r-30" vertex="1">
          <mxGeometry x="28" y="324" width="136" height="54" as="geometry" />
        </mxCell>
        <mxCell id="83XovwtlkcWAeHWIpk5r-38" value="&lt;span style=&quot;font-size:11.0pt;line-height:&lt;br/&gt;120%;font-family:&amp;quot;Arial&amp;quot;,sans-serif;mso-fareast-font-family:Calibri;mso-fareast-theme-font:&lt;br/&gt;minor-latin;mso-ansi-language:EN-GB;mso-fareast-language:EN-US;mso-bidi-language:&lt;br/&gt;AR-SA&quot; lang=&quot;EN-GB&quot;&gt;Development View - Presentation&lt;/span&gt;" style="text;html=1;align=center;verticalAlign=middle;resizable=0;points=[];autosize=1;strokeColor=none;fillColor=none;fontSize=15;fontColor=#1A1A1A;" parent="1" vertex="1">
          <mxGeometry x="34" y="12" width="240" height="30" as="geometry" />
        </mxCell>
        <mxCell id="nSjdZwKefnJ9XXw0Bvkh-1" value="&lt;span&gt;&lt;span style=&quot;font-weight: normal;&quot; lang=&quot;EN-GB&quot;&gt;Manage Location&lt;/span&gt;&lt;/span&gt;" style="rounded=1;whiteSpace=wrap;html=1;fontStyle=1" vertex="1" parent="1">
          <mxGeometry x="477" y="383" width="140" height="40" as="geometry" />
        </mxCell>
      </root>
    </mxGraphModel>
  </diagram>
</mxfile>
